<svg width="123" height="40" viewBox="0 0 123 40" fill="none" xmlns="http://www.w3.org/2000/svg">
<path d="M29.6246 9.67746L25.0265 21.4778C24.8496 21.9206 25.1812 22.3855 25.6455 22.3855H26.3086C26.8392 22.3855 27.3034 22.0534 27.4803 21.5663L28.3424 19.286H33.7364L34.5985 21.5663C34.7753 22.0534 35.2396 22.3855 35.7701 22.3855H36.5438C37.0081 22.3855 37.3176 21.9206 37.1628 21.4778L32.6089 9.67746C32.4321 9.19039 31.9679 8.88044 31.4373 8.88044H30.7962C30.2878 8.8583 29.8235 9.19039 29.6246 9.67746ZM29.1825 17.1163L30.0667 14.7695C30.1551 14.5039 30.2657 14.216 30.3762 13.9061C30.4867 13.574 30.5973 13.2419 30.7078 12.9098C30.8183 12.5556 30.9289 12.2235 31.0394 11.9135C31.0394 11.8914 31.0615 11.8693 31.0615 11.825C31.172 12.1571 31.2826 12.5113 31.3931 12.9098C31.5257 13.3083 31.6363 13.6626 31.7468 13.9946C31.8573 14.3267 31.9457 14.5703 32.0121 14.7252L32.9184 17.1384H29.1825V17.1163Z" fill="#16282D"/>
<path d="M58.7606 13.419C58.3406 12.9763 57.8322 12.622 57.2574 12.3563C56.6826 12.0907 56.0637 11.98 55.3784 11.98C54.6268 11.98 53.9194 12.1128 53.2783 12.3785C52.6372 12.6442 52.1066 13.0205 51.6424 13.5076C51.1782 13.9947 50.8245 14.5703 50.5813 15.2123C50.316 15.8765 50.2055 16.585 50.2055 17.4041C50.2055 18.4004 50.4266 19.3081 50.8908 20.083C51.355 20.8579 51.974 21.4778 52.7919 21.9206C53.6099 22.3634 54.5383 22.6069 55.6215 22.6069C56.0858 22.6069 56.5721 22.5405 57.0585 22.4076C57.5448 22.2748 58.009 22.0977 58.4511 21.8763C58.628 21.7877 58.7827 21.6992 58.9375 21.5885C59.3354 21.3228 59.4459 20.7693 59.1585 20.3708L58.9596 20.1051C58.6943 19.7288 58.1859 19.6402 57.788 19.9059C57.5669 20.0387 57.3458 20.1494 57.1469 20.238C56.749 20.393 56.3068 20.4594 55.8426 20.4594C55.1573 20.4594 54.5604 20.3265 54.052 20.0609C53.5436 19.7952 53.1456 19.4188 52.8804 18.9318C52.7035 18.5997 52.5709 18.2454 52.5046 17.8248H59.1585C59.6228 17.8248 59.9986 17.4484 59.9986 17.0056C60.0207 16.275 59.9102 15.6108 59.6891 15.0131C59.4901 14.3932 59.1806 13.8618 58.7606 13.419ZM53.7867 14.4375C54.2067 14.1939 54.7373 14.0611 55.3784 14.0611C55.7984 14.0611 56.1742 14.1496 56.5058 14.3268C56.8374 14.5039 57.1248 14.7474 57.3458 15.0352C57.5669 15.3452 57.6995 15.6994 57.7216 16.0979V16.1865H52.593C52.6372 15.9208 52.7256 15.6994 52.814 15.478C53.0351 15.0352 53.3667 14.681 53.7867 14.4375Z" fill="#16282D"/>
<path d="M69.5264 12.2014H68.399C68.0011 12.2014 67.6253 12.4228 67.4042 12.7549L65.7241 15.5002L63.6461 12.6663C63.4251 12.3785 63.0714 12.2014 62.7177 12.2014H61.4355C60.9934 12.2014 60.7502 12.7106 61.0155 13.0427L64.1767 17.2271L60.9934 21.5221C60.7281 21.8763 60.9713 22.3634 61.4134 22.3634H62.5408C62.9166 22.3634 63.2924 22.1641 63.4914 21.8542L65.481 18.9539L67.6474 21.8763C67.8684 22.1642 68.2221 22.3413 68.5758 22.3413H69.7917C70.2338 22.3413 70.477 21.8321 70.2117 21.5L66.9842 17.2049L69.9464 13.0206C70.2117 12.6885 69.9685 12.2014 69.5264 12.2014Z" fill="#16282D"/>
<path d="M80.5132 15.788C80.1153 15.4559 79.629 15.1681 79.0763 14.9467C78.5015 14.7032 77.8826 14.526 77.1752 14.3711C76.7551 14.2825 76.3793 14.1718 76.0477 14.0611C75.7162 13.9504 75.4509 13.8176 75.2298 13.6626C75.0087 13.5076 74.854 13.3305 74.7435 13.1313C74.6329 12.932 74.5666 12.7106 74.5666 12.4449C74.5666 12.1128 74.6551 11.825 74.854 11.5815C75.053 11.338 75.3182 11.1609 75.6498 11.028C75.9814 10.8952 76.4014 10.8288 76.8436 10.8288C77.2636 10.8288 77.6394 10.8952 78.0152 11.028C78.391 11.1609 78.7447 11.3601 79.0542 11.6258C79.1647 11.7143 79.2753 11.8029 79.3637 11.9136C79.6953 12.2678 80.2479 12.29 80.6016 11.9357L81.0659 11.4929C81.3975 11.183 81.3975 10.6516 81.1101 10.3196C80.9111 10.0982 80.6901 9.87677 80.469 9.69965C80.0048 9.34542 79.4963 9.07975 78.8995 8.90264C78.3026 8.72552 77.6173 8.63696 76.8657 8.63696C76.2025 8.63696 75.5835 8.72552 74.9866 8.92477C74.4119 9.12403 73.9034 9.3897 73.4613 9.74393C73.0192 10.0982 72.6876 10.4967 72.4223 10.9837C72.1792 11.4708 72.0465 11.98 72.0465 12.5556C72.0465 13.1313 72.1349 13.6183 72.2897 14.0611C72.4665 14.5039 72.7097 14.9024 73.0855 15.2566C73.4392 15.6109 73.8813 15.8987 74.4119 16.1422C74.9424 16.3858 75.5614 16.5629 76.2688 16.7178C76.6446 16.7843 76.9762 16.8728 77.2857 16.9614C77.5952 17.0499 77.8605 17.1606 78.1036 17.2935C78.3468 17.4263 78.5458 17.5591 78.7226 17.7141C78.8995 17.8691 79.01 18.0241 79.0984 18.2233C79.1868 18.4004 79.231 18.6218 79.231 18.8211C79.231 19.131 79.1205 19.3967 78.9216 19.6402C78.7226 19.8838 78.4352 20.0609 78.0815 20.1937C77.7278 20.3266 77.3299 20.393 76.8878 20.393C76.1362 20.393 75.4509 20.2159 74.854 19.8838C74.4561 19.6624 74.0361 19.3082 73.6161 18.8432C73.2624 18.4447 72.6655 18.4447 72.3339 18.8432L71.8476 19.3967C71.5602 19.7288 71.5602 20.2159 71.8476 20.548C72.1349 20.8579 72.4444 21.1457 72.776 21.3893C73.3066 21.7878 73.9034 22.0977 74.5445 22.297C75.1856 22.4962 75.9151 22.6069 76.7109 22.6069C77.7278 22.6069 78.6121 22.4298 79.3637 22.0977C80.1153 21.7656 80.7122 21.2786 81.1322 20.6365C81.5522 19.9945 81.7512 19.2417 81.7512 18.3562C81.7512 17.847 81.6406 17.382 81.4417 16.9614C81.1985 16.4965 80.9111 16.1201 80.5132 15.788Z" fill="#16282D"/>
<path d="M91.6106 12.7105C90.9032 12.2677 90.1074 12.0242 89.201 12.0242C88.6484 12.0242 88.0957 12.1349 87.5873 12.3563C87.0567 12.5777 86.6146 12.8655 86.2609 13.2197C86.1504 13.3083 86.0619 13.419 85.9956 13.5297V12.9762C85.9956 12.5555 85.6419 12.2013 85.2219 12.2013H84.4261C83.9839 12.2013 83.6523 12.5555 83.6523 12.9762V25.817C83.6523 26.2598 84.006 26.5919 84.4261 26.5919H85.244C85.6861 26.5919 86.0177 26.2377 86.0177 25.817V21.1456C86.0619 21.1899 86.1061 21.2342 86.1504 21.2784C86.5262 21.6548 86.9904 21.9648 87.543 22.1862C88.0957 22.4076 88.6484 22.5404 89.2452 22.5404C90.1295 22.5404 90.9032 22.319 91.6106 21.8541C92.318 21.3891 92.8707 20.7692 93.2686 19.9722C93.6665 19.1752 93.8654 18.2675 93.8654 17.2712C93.8654 16.2528 93.6665 15.3451 93.2686 14.5481C92.8707 13.7732 92.318 13.1533 91.6106 12.7105ZM91.2127 18.9317C90.9695 19.4187 90.6379 19.773 90.2179 20.0608C89.7979 20.3264 89.3116 20.4593 88.781 20.4593C88.2062 20.4593 87.7199 20.3264 87.2999 20.0608C86.8799 19.7951 86.5483 19.4187 86.3051 18.9317C86.0619 18.4667 85.9293 17.9133 85.9293 17.2934C85.9293 16.6734 86.0619 16.12 86.3051 15.655C86.5483 15.1901 86.8799 14.8137 87.2999 14.5481C87.7199 14.2824 88.2062 14.1496 88.781 14.1496C89.3337 14.1496 89.82 14.2824 90.24 14.5481C90.66 14.8137 90.9916 15.1901 91.2127 15.655C91.4338 16.12 91.5664 16.6734 91.5664 17.2934C91.5664 17.9133 91.4338 18.4446 91.2127 18.9317Z" fill="#16282D"/>
<path d="M96.4961 22.3855H97.2919C97.734 22.3855 98.0656 22.0312 98.0656 21.6106V13.0205C98.0656 12.5777 97.7119 12.2456 97.2919 12.2456H96.4961C96.0539 12.2456 95.7224 12.5998 95.7224 13.0205V21.6106C95.7224 22.0312 96.0761 22.3855 96.4961 22.3855Z" fill="#16282D"/>
<path d="M96.8719 7.28638C96.4076 7.28638 96.0539 7.41921 95.7666 7.66275C95.5013 7.92842 95.3687 8.26051 95.3687 8.65902C95.3687 9.10181 95.5013 9.4339 95.7666 9.67743C96.0318 9.92097 96.4076 10.0317 96.8719 10.0317C97.3361 10.0317 97.7119 9.89883 97.9993 9.65529C98.2646 9.38962 98.3972 9.07967 98.3972 8.68116C98.3972 8.23837 98.2646 7.88414 97.9993 7.64061C97.734 7.39708 97.3582 7.28638 96.8719 7.28638Z" fill="#8ECC09"/>
<path d="M109.207 13.8397C108.942 13.2198 108.544 12.7549 108.036 12.4449C107.505 12.135 106.864 11.98 106.09 11.98C105.56 11.98 105.029 12.0907 104.521 12.3342C104.012 12.5556 103.57 12.8656 103.194 13.2419C103.084 13.3748 102.973 13.4855 102.885 13.6183L102.863 12.9541C102.863 12.5335 102.509 12.1792 102.089 12.1792H101.337C100.895 12.1792 100.564 12.5335 100.564 12.9541V21.5442C100.564 21.987 100.917 22.3191 101.337 22.3191H102.133C102.575 22.3191 102.907 21.9649 102.907 21.5442V16.1865C102.907 15.8765 102.973 15.5887 103.084 15.3452C103.216 15.0795 103.371 14.8581 103.592 14.6589C103.813 14.4596 104.056 14.3046 104.344 14.1939C104.631 14.0832 104.941 14.0389 105.294 14.0389C105.714 14.0168 106.068 14.1054 106.378 14.2603C106.665 14.4153 106.886 14.681 107.041 15.0131C107.173 15.3452 107.262 15.788 107.262 16.2972V21.5442C107.262 21.987 107.615 22.3191 108.036 22.3191H108.831C109.273 22.3191 109.605 21.9649 109.605 21.5442V16.12C109.605 15.2345 109.472 14.4596 109.207 13.8397Z" fill="#16282D"/>
<path d="M16.8693 16.4963L15.2776 13.3525L14.9239 12.0242L13.2881 13.751L7.93837 14.2603L6.92148 14.8359C6.92148 14.8359 5.92669 15.6993 5.81616 16.0757C5.70563 16.4742 4.99823 18.666 4.99823 18.666L6.14776 24.8872C6.21407 25.2857 6.61199 25.5735 7.0099 25.5071L13.2881 24.6658C13.2881 24.6658 13.5534 24.4665 14.0176 24.0237C14.4818 23.5809 17.2009 19.1531 17.2009 19.1531L16.8693 16.4963Z" fill="white"/>
<path d="M14.7471 14.1275C14.7471 14.1275 14.6366 14.0389 14.5702 13.9946L12.3154 17.1827C12.0943 17.4927 11.7628 17.6919 11.3869 17.7362L4.99823 18.5775L5.04244 18.7989L11.0996 18.0019C11.5859 17.9354 12.028 18.2675 12.1165 18.7325L13.1997 24.7322L13.4207 24.7101L12.2712 18.3561C12.2049 18.0019 12.2933 17.6255 12.4923 17.3155L14.7471 14.1275Z" fill="#DDDDDD"/>
<path d="M23.9654 11.9799L18.3946 8.96893L13.8186 4.60746C13.5091 4.31965 13.0449 4.31965 12.7575 4.60746L8.15939 8.96893L2.58861 11.9799C2.23491 12.1791 2.08016 12.6219 2.25701 12.9983L4.99819 18.7103L7.56252 15.1901C7.76148 14.9244 8.04886 14.7473 8.38045 14.703L14.106 13.9282C14.526 13.8617 14.9018 14.1495 14.9902 14.5702L16.0513 20.2822C16.1176 20.6143 16.0292 20.9463 15.8303 21.2342L13.2659 24.7543L19.5441 25.5956C19.9641 25.6399 20.3399 25.3742 20.4063 24.9757L21.5558 18.7545L24.297 13.0426C24.4738 12.6219 24.3191 12.1791 23.9654 11.9799Z" fill="#8ECC09"/>
<path d="M46.7791 12.7105C46.0717 12.2677 45.2758 12.0242 44.3695 12.0242C43.8168 12.0242 43.2642 12.1349 42.7557 12.3563C42.2252 12.5777 41.783 12.8655 41.4293 13.2197C41.3188 13.3083 41.2304 13.419 41.1641 13.5297V12.9762C41.1641 12.5555 40.8104 12.2013 40.3903 12.2013H39.6166C39.1745 12.2013 38.8429 12.5555 38.8429 12.9762V25.817C38.8429 26.2598 39.1966 26.5919 39.6166 26.5919H40.4346C40.8767 26.5919 41.2083 26.2377 41.2083 25.817V21.1456C41.2525 21.1899 41.2967 21.2342 41.3409 21.2784C41.7167 21.6548 42.1809 21.9648 42.7336 22.1862C43.2863 22.4076 43.8389 22.5404 44.4358 22.5404C45.32 22.5404 46.0938 22.319 46.8012 21.8541C47.5086 21.3891 48.0612 20.7692 48.4591 19.9722C48.857 19.1752 49.056 18.2675 49.056 17.2712C49.056 16.2528 48.857 15.3451 48.4591 14.5481C48.0391 13.7732 47.4865 13.1533 46.7791 12.7105ZM46.3811 18.9317C46.138 19.4187 45.8064 19.773 45.3864 20.0608C44.9663 20.3264 44.48 20.4593 43.9494 20.4593C43.3747 20.4593 42.8883 20.3264 42.4683 20.0608C42.0483 19.7951 41.7167 19.4187 41.4735 18.9317C41.2304 18.4667 41.0977 17.9133 41.0977 17.2934C41.0977 16.6734 41.2304 16.12 41.4735 15.655C41.7167 15.1901 42.0483 14.8137 42.4683 14.5481C42.8883 14.2824 43.3747 14.1496 43.9494 14.1496C44.5021 14.1496 44.9884 14.2824 45.4085 14.5481C45.8285 14.8137 46.1601 15.1901 46.3811 15.655C46.6022 16.12 46.7348 16.6734 46.7348 17.2934C46.7348 17.9133 46.6243 18.4446 46.3811 18.9317Z" fill="#16282D"/>
<path d="M10.7679 20.3043C11.2197 20.3043 11.5859 19.9376 11.5859 19.4852C11.5859 19.0328 11.2197 18.666 10.7679 18.666C10.3162 18.666 9.95001 19.0328 9.95001 19.4852C9.95001 19.9376 10.3162 20.3043 10.7679 20.3043Z" fill="#16282D"/>
<path d="M9.78172 16.7941C10.2263 16.714 10.5429 16.4052 10.4889 16.1044C10.4349 15.8035 10.0307 15.6245 9.58608 15.7046C9.14148 15.7847 8.82486 16.0935 8.87889 16.3943C8.93291 16.6952 9.33712 16.8742 9.78172 16.7941Z" fill="#16282D"/>
<path d="M13.9335 18.6604C14.2367 18.6256 14.4409 18.233 14.3895 17.7836C14.338 17.3341 14.0505 16.9979 13.7473 17.0327C13.4441 17.0675 13.2399 17.4601 13.2913 17.9095C13.3427 18.359 13.6302 18.6952 13.9335 18.6604Z" fill="#16282D"/>
<path d="M14.5318 21.626C14.835 21.5912 15.0392 21.1986 14.9878 20.7491C14.9364 20.2997 14.6489 19.9635 14.3456 19.9983C14.0424 20.0331 13.8382 20.4256 13.8897 20.8751C13.9411 21.3246 14.2286 21.6607 14.5318 21.626Z" fill="#16282D"/>
<path d="M6.78882 20.8356C7.24055 20.8356 7.60675 20.4688 7.60675 20.0164C7.60675 19.564 7.24055 19.1973 6.78882 19.1973C6.33709 19.1973 5.97089 19.564 5.97089 20.0164C5.97089 20.4688 6.33709 20.8356 6.78882 20.8356Z" fill="#16282D"/>
<path d="M11.4974 24.1786C11.9492 24.1786 12.3154 23.8119 12.3154 23.3594C12.3154 22.907 11.9492 22.5403 11.4974 22.5403C11.0457 22.5403 10.6795 22.907 10.6795 23.3594C10.6795 23.8119 11.0457 24.1786 11.4974 24.1786Z" fill="#16282D"/>
<path d="M7.51831 24.7321C7.97004 24.7321 8.33624 24.3653 8.33624 23.9129C8.33624 23.4605 7.97004 23.0938 7.51831 23.0938C7.06658 23.0938 6.70038 23.4605 6.70038 23.9129C6.70038 24.3653 7.06658 24.7321 7.51831 24.7321Z" fill="#16282D"/>
<path d="M8.18152 8.94663L12.0059 14.1937L13.266 14.0166V4.36377C13.0891 4.36377 12.8902 4.43019 12.7575 4.58516L8.18152 8.94663Z" fill="#AFEA0F"/>
<path d="M2.25705 12.3784C2.19073 12.5777 2.19073 12.7991 2.27916 12.9983L5.02034 18.7103L7.58466 15.1901C7.78362 14.9244 8.071 14.7473 8.4026 14.7031L9.08789 14.6145L2.25705 12.3784Z" fill="#AFEA0F"/>
<path d="M23.9654 11.9798L18.4388 8.99097H18.4167L14.6586 14.0609C14.8355 14.1716 14.946 14.3487 14.9902 14.5701L15.145 15.3671L24.3633 12.4669C24.297 12.2676 24.1643 12.0683 23.9654 11.9798Z" fill="#AFEA0F"/>
<path d="M21.5558 18.7103L15.3661 16.6514L15.9409 19.7066L20.0526 25.4629C20.2295 25.3522 20.3621 25.175 20.4063 24.9315L21.5558 18.7103Z" fill="#AFEA0F"/>
<path d="M119.243 18.4003C119.133 18.0904 118.956 17.8247 118.735 17.5812C118.47 17.2934 118.16 17.072 117.718 16.8506C117.298 16.6513 116.768 16.4521 116.127 16.2971C115.684 16.1864 115.309 16.0978 115.043 15.965C114.756 15.8543 114.557 15.7436 114.424 15.655C114.292 15.5665 114.203 15.4558 114.115 15.323C114.049 15.1901 114.004 15.0351 113.982 14.9023C113.982 14.703 114.026 14.5481 114.093 14.4152C114.159 14.2824 114.27 14.1717 114.38 14.0831C114.513 13.9946 114.667 13.9282 114.866 13.8839C115.198 13.7953 115.729 13.7511 116.348 13.9725C116.635 14.0831 116.944 14.216 117.232 14.4152C117.32 14.4817 117.453 14.5481 117.563 14.6588C117.851 14.8802 118.227 14.8359 118.47 14.5702L118.912 14.0831C119.177 13.7953 119.133 13.3525 118.823 13.109C118.647 12.954 118.448 12.8212 118.271 12.7105C117.851 12.467 117.409 12.2899 116.922 12.157C115.928 11.8913 114.889 11.8913 113.982 12.1792C113.518 12.312 113.12 12.5334 112.766 12.7991C112.413 13.0647 112.147 13.3968 111.948 13.7511C111.749 14.1274 111.639 14.5259 111.639 14.9909C111.639 15.3451 111.683 15.6993 111.794 16.0093C111.904 16.3192 112.059 16.607 112.28 16.8506C112.545 17.1384 112.899 17.4262 113.363 17.6476C113.827 17.8911 114.402 18.0904 115.11 18.2675C115.53 18.3782 115.905 18.4668 116.171 18.5774C116.436 18.6881 116.657 18.7767 116.768 18.8653C117.011 19.0424 117.121 19.2859 117.121 19.5959C117.121 19.7508 117.077 19.9058 117.011 20.0387C116.944 20.1715 116.834 20.2822 116.723 20.3929C116.591 20.5036 116.436 20.57 116.281 20.6143C116.104 20.6586 115.905 20.6807 115.706 20.6807C115.176 20.6807 114.69 20.5921 114.203 20.3929C113.938 20.2822 113.606 20.0829 113.319 19.8394C113.076 19.6401 112.7 19.6401 112.457 19.8615L111.904 20.3486C111.595 20.6143 111.595 21.1013 111.926 21.367C112.28 21.6548 112.7 21.9205 113.12 22.0976C113.827 22.4076 114.645 22.5625 115.552 22.5625C116.281 22.5625 116.944 22.4297 117.541 22.164C118.116 21.8984 118.602 21.522 118.934 21.0349C119.266 20.5479 119.442 20.0165 119.442 19.3966C119.398 19.0645 119.354 18.7103 119.243 18.4003Z" fill="#16282D"/>
<path d="M72.0466 34.6948L73.3951 25.7505H76.7994C77.75 25.7505 78.4795 26.0162 78.9658 26.5254C79.3637 26.946 79.5627 27.4552 79.5627 28.053C79.5627 28.208 79.5406 28.3629 79.5185 28.5179C79.3859 29.3814 79.01 30.0677 78.3911 30.5547C77.7721 31.0418 76.9542 31.2853 75.9594 31.2853H74.0361L73.5277 34.6727H72.0466V34.6948ZM74.213 30.112H76.1362C76.6668 30.112 77.0868 29.957 77.4184 29.6692C77.75 29.3814 77.9489 29.005 78.0153 28.5622C78.0374 28.4515 78.0374 28.3408 78.0374 28.2522C78.0374 27.9202 77.9489 27.6323 77.7721 27.4109C77.551 27.1231 77.1531 26.9682 76.6005 26.9682H74.6993L74.213 30.112Z" fill="#AFEA0F"/>
<path d="M79.4743 32.8131C79.5627 32.1489 79.8943 31.6397 80.4248 31.2854C80.9775 30.9312 81.707 30.7762 82.6133 30.7762H83.7629L83.8513 30.1785C83.8734 30.0899 83.8734 30.0235 83.8734 29.9349C83.8734 29.6914 83.8071 29.4922 83.6744 29.3593C83.4976 29.1822 83.2323 29.0715 82.8565 29.0715C82.547 29.0715 82.2596 29.1601 82.0386 29.315C81.8175 29.47 81.6849 29.6914 81.6407 29.9349H80.2259L80.2038 29.8907C80.248 29.3372 80.5575 28.8723 81.1101 28.4737C81.6628 28.0752 82.3481 27.876 83.1439 27.876C83.8734 27.876 84.4482 28.0752 84.8682 28.4737C85.1998 28.7837 85.3766 29.2043 85.3545 29.7357C85.3545 29.8685 85.3545 30.0014 85.3324 30.1563L84.8903 33.123C84.8461 33.4108 84.824 33.6765 84.824 33.92C84.824 34.1636 84.8461 34.4071 84.8903 34.6506H83.4534C83.4313 34.4957 83.4092 34.3407 83.3871 34.1636C83.3871 34.0971 83.3871 34.0086 83.3871 33.9422C83.3871 33.8536 83.3871 33.7651 83.4092 33.6765C83.166 33.9865 82.8565 34.2521 82.4807 34.4514C82.1049 34.6728 81.7291 34.7613 81.3091 34.7613C80.6459 34.7613 80.1596 34.5842 79.828 34.23C79.5627 33.9422 79.4521 33.5879 79.4521 33.1673C79.4521 33.0787 79.4521 32.9459 79.4743 32.8131ZM80.9554 32.7909C80.9554 32.8573 80.9333 32.9016 80.9333 32.9459C80.9333 33.123 80.9775 33.278 81.1101 33.3887C81.2428 33.5437 81.4859 33.6101 81.7954 33.6101C82.1491 33.6101 82.4807 33.5215 82.8123 33.3223C83.1439 33.123 83.365 32.9016 83.4976 32.6581L83.6302 31.7061H82.4807C82.0828 31.7061 81.7291 31.8168 81.4417 32.0382C81.1543 32.2596 80.9996 32.5031 80.9554 32.7909Z" fill="#AFEA0F"/>
<path d="M86.1504 34.6948L87.1452 28.053H88.5158L88.4715 28.9829C88.6926 28.6508 88.9358 28.3851 89.2232 28.208C89.5105 28.0309 89.8421 27.9202 90.1737 27.9202C90.2622 27.9202 90.3506 27.9202 90.4169 27.9423C90.5053 27.9644 90.5716 27.9644 90.638 27.9866L90.2401 29.3814L89.599 29.3592C89.3116 29.3592 89.0684 29.4256 88.8474 29.5585C88.6263 29.6913 88.4494 29.8684 88.2947 30.112L87.6094 34.6948H86.1504Z" fill="#AFEA0F"/>
<path d="M90.9695 29.1379L91.1243 28.0531H92.1412L92.3844 26.4148H93.8655L93.6223 28.0531H94.816L94.6613 29.1379H93.4676L92.9149 32.8131C92.8928 32.9016 92.8707 32.9902 92.8707 33.0788C92.8707 33.2337 92.9149 33.3444 92.9812 33.433C93.0918 33.5437 93.2465 33.6101 93.4454 33.6101C93.5339 33.6101 93.6002 33.6101 93.6886 33.588C93.7771 33.5658 93.8434 33.5437 93.9318 33.5215V34.6064C93.7992 34.6728 93.6444 34.7392 93.4676 34.7614C93.2907 34.8056 93.1139 34.8278 92.9149 34.8278C92.3844 34.8278 91.9864 34.6728 91.6991 34.3407C91.5001 34.0972 91.4117 33.7651 91.4117 33.3444C91.4117 33.1895 91.4338 33.0123 91.4559 32.8131L92.0085 29.1379H90.9695Z" fill="#AFEA0F"/>
<path d="M94.7718 34.6949L95.7666 28.0531H97.1372L97.0929 28.9829C97.3582 28.6508 97.6677 28.3852 98.0214 28.2081C98.3751 28.0309 98.7509 27.9424 99.1709 27.9424C99.8341 27.9424 100.32 28.1638 100.652 28.5844C100.895 28.8944 101.006 29.315 101.006 29.8685C101.006 30.1342 100.984 30.3999 100.962 30.6877L100.365 34.6949H98.8836L99.5025 30.5548C99.5246 30.3777 99.5468 30.2227 99.5468 30.0899C99.5468 29.8021 99.5025 29.5807 99.392 29.4479C99.2373 29.2486 98.9278 29.1379 98.5299 29.1379C98.2204 29.1379 97.933 29.2043 97.6898 29.315C97.4467 29.4479 97.2256 29.625 97.0487 29.8464L96.3192 34.6728H94.7718V34.6949Z" fill="#AFEA0F"/>
<path d="M101.912 31.529L101.956 31.2854C102.111 30.267 102.509 29.47 103.128 28.8501C103.747 28.2302 104.499 27.9424 105.361 27.9424C105.361 27.9424 105.361 27.9424 105.383 27.9424C106.245 27.9424 106.864 28.2302 107.262 28.7837C107.549 29.2043 107.704 29.7135 107.704 30.3113C107.704 30.5106 107.682 30.732 107.638 30.9755L107.527 31.7725H103.371C103.349 31.8832 103.349 31.9939 103.349 32.0825C103.349 32.5031 103.437 32.8573 103.614 33.123C103.835 33.4551 104.211 33.6322 104.764 33.6101C105.162 33.6101 105.515 33.5658 105.825 33.4551C106.157 33.3444 106.444 33.2116 106.731 33.0344L107.063 34.0086C106.776 34.23 106.422 34.4071 105.98 34.5621C105.538 34.717 105.051 34.7835 104.499 34.7835C103.57 34.7835 102.863 34.4735 102.398 33.8536C102.045 33.3887 101.846 32.8131 101.846 32.1489C101.868 31.9718 101.89 31.7504 101.912 31.529ZM103.614 30.6213L103.636 30.6655H106.223L106.245 30.5548C106.267 30.422 106.267 30.3113 106.267 30.2006C106.267 29.9349 106.201 29.6914 106.09 29.5143C105.935 29.2707 105.626 29.1379 105.206 29.1379C104.83 29.1379 104.521 29.2708 104.233 29.5586C103.946 29.8242 103.747 30.2006 103.614 30.6213Z" fill="#AFEA0F"/>
<path d="M108.257 34.6948L109.251 28.053H110.622L110.578 28.9829C110.799 28.6508 111.042 28.3851 111.329 28.208C111.617 28.0309 111.948 27.9202 112.28 27.9202C112.368 27.9202 112.457 27.9202 112.523 27.9423C112.612 27.9644 112.678 27.9644 112.744 27.9866L112.346 29.3814L111.705 29.3592C111.418 29.3592 111.175 29.4256 110.954 29.5585C110.733 29.6913 110.556 29.8684 110.401 30.112L109.716 34.6948H108.257Z" fill="#AFEA0F"/>
<path d="M112.523 32.6359L112.545 32.5917H113.96C113.96 32.6359 113.96 32.7024 113.938 32.7466C113.938 33.0566 114.049 33.278 114.247 33.433C114.491 33.6101 114.778 33.6986 115.154 33.6986C115.53 33.6986 115.817 33.6322 116.06 33.4772C116.303 33.3223 116.436 33.123 116.458 32.8795C116.458 32.8352 116.458 32.8131 116.458 32.7688C116.458 32.5917 116.392 32.4367 116.237 32.3038C116.06 32.1489 115.729 32.016 115.198 31.9053C114.446 31.7504 113.872 31.5068 113.496 31.1969C113.186 30.9312 113.032 30.5991 113.032 30.2006C113.032 30.112 113.032 30.0456 113.054 29.9571C113.142 29.3814 113.43 28.8944 113.96 28.518C114.491 28.1416 115.132 27.9424 115.905 27.9424C116.679 27.9424 117.276 28.1416 117.718 28.5623C118.072 28.8944 118.249 29.2929 118.271 29.7357C118.271 29.8242 118.271 29.9349 118.249 30.0456L118.227 30.0899H116.79C116.79 30.0456 116.812 30.0013 116.812 29.9571C116.812 29.7357 116.723 29.5364 116.569 29.3814C116.392 29.1822 116.127 29.0936 115.751 29.0936C115.419 29.0936 115.132 29.1822 114.911 29.3372C114.69 29.4921 114.557 29.7135 114.535 29.9349C114.535 29.9792 114.535 30.0235 114.535 30.0456C114.535 30.2227 114.601 30.3777 114.734 30.4663C114.889 30.5991 115.242 30.7098 115.773 30.8205C116.569 30.9755 117.143 31.219 117.519 31.529C117.829 31.7946 117.983 32.1267 117.983 32.5474C117.983 32.6359 117.983 32.7245 117.961 32.8131C117.873 33.433 117.563 33.92 117.033 34.2964C116.502 34.6728 115.817 34.8499 114.999 34.8499C114.181 34.8499 113.54 34.6285 113.076 34.1857C112.7 33.8315 112.523 33.4108 112.523 32.968C112.501 32.8352 112.501 32.7466 112.523 32.6359Z" fill="#AFEA0F"/>
</svg>
