<svg width="18" height="18" viewBox="0 0 18 18" fill="none" xmlns="http://www.w3.org/2000/svg">
<path d="M12.8645 11.3208H12.0463L11.7633 11.0377C12.7719 9.86964 13.3791 8.35163 13.3791 6.68954C13.3791 2.99485 10.3842 0 6.68954 0C2.99485 0 0 2.99485 0 6.68954C0 10.3842 2.99485 13.3791 6.68954 13.3791C8.35163 13.3791 9.86964 12.7719 11.0377 11.7684L11.3208 12.0515V12.8645L16.4666 18L18 16.4666L12.8645 11.3208ZM6.68954 11.3208C6.08132 11.3207 5.47907 11.2009 4.91717 10.9681C4.35526 10.7353 3.84471 10.3941 3.41466 9.96405C2.54614 9.09543 2.05825 7.91737 2.05832 6.68902C2.05839 5.46068 2.54641 4.28267 3.41503 3.41415C4.28365 2.54563 5.46171 2.05774 6.69005 2.0578C7.9184 2.05787 9.0964 2.5459 9.96492 3.41451C10.8334 4.28313 11.3213 5.46119 11.3213 6.68954C11.3212 7.91788 10.8332 9.09589 9.96456 9.96441C9.09594 10.8329 7.91788 11.3208 6.68954 11.3208Z" fill="white"/>
</svg>
